<?xml version="1.0" standalone="no"?>
<!DOCTYPE svg PUBLIC "-//W3C//DTD SVG 20010904//EN"
 "http://www.w3.org/TR/2001/REC-SVG-20010904/DTD/svg10.dtd">
<svg version="1.0" xmlns="http://www.w3.org/2000/svg"
 width="810.000000pt" height="799.000000pt" viewBox="0 0 810.000000 799.000000"
 preserveAspectRatio="xMidYMid meet">

<g transform="translate(0.000000,799.000000) scale(0.100000,-0.100000)"
fill="currentColor" stroke="none">
<path d="M3715 7809 c-926 -76 -1724 -433 -2370 -1060 -83 -81 -193 -197 -245
-258 -516 -608 -819 -1344 -890 -2158 -16 -181 -8 -632 14 -793 117 -847 467
-1578 1041 -2168 261 -269 499 -458 815 -647 505 -301 1047 -473 1660 -526
175 -15 653 -6 810 15 829 114 1568 474 2179 1061 350 337 660 790 850 1241
203 483 300 968 301 1494 0 320 -28 587 -90 862 -293 1292 -1226 2327 -2470
2741 -257 86 -588 157 -865 187 -135 15 -603 21 -740 9z m685 -229 c1165 -117
2155 -732 2746 -1706 272 -450 443 -983 495 -1547 17 -188 6 -623 -20 -797
-55 -364 -133 -643 -271 -962 -398 -925 -1207 -1658 -2181 -1976 -397 -130
-688 -176 -1104 -176 -354 0 -610 31 -920 111 -1293 331 -2298 1343 -2619
2638 -64 259 -86 448 -93 775 -6 305 7 490 53 740 75 410 224 815 425 1156
288 490 710 922 1192 1221 149 93 459 245 623 306 314 117 682 197 1039 227
130 10 486 5 635 -10z"/>
<path d="M4225 6784 c-210 -23 -435 -74 -601 -137 -575 -220 -1045 -691 -1257
-1258 -81 -216 -118 -390 -137 -647 -10 -139 -31 -268 -49 -300 -7 -12 -14 -5
-34 34 -35 69 -53 137 -77 299 -12 77 -28 163 -37 190 -48 156 -162 295 -293
358 -192 93 -434 89 -639 -9 -158 -77 -292 -230 -352 -404 -19 -54 -23 -87
-23 -195 -1 -233 38 -302 199 -350 332 -97 401 -153 566 -456 109 -201 188
-297 312 -381 80 -55 226 -122 316 -147 41 -11 76 -22 78 -25 2 -2 -34 -51
-80 -108 -177 -221 -205 -275 -302 -587 -18 -59 -56 -121 -100 -161 -65 -60
-89 -155 -49 -194 14 -14 71 -16 485 -16 519 0 515 0 563 63 15 19 46 93 70
165 61 181 101 256 225 416 25 33 49 64 52 69 4 6 59 -5 135 -27 180 -51 441
-102 619 -121 200 -21 564 -21 755 0 266 30 562 99 701 163 59 28 75 30 201
34 l137 5 54 -76 c30 -42 80 -115 112 -163 l57 -86 -42 -94 c-23 -51 -64 -131
-91 -178 -27 -47 -49 -93 -49 -101 0 -9 9 -28 21 -43 l20 -26 505 0 c549 0
554 1 590 55 55 84 8 489 -80 686 -34 77 -141 257 -174 293 -15 16 -22 30 -17
32 54 21 487 235 563 279 120 69 194 123 187 134 -3 5 -56 25 -118 45 -134 42
-215 89 -300 174 -82 80 -126 157 -171 293 -51 152 -73 269 -91 470 -22 252
-53 406 -120 598 -176 507 -492 884 -971 1158 -215 123 -489 215 -769 258 -98
15 -421 27 -500 19z m454 -229 c114 -19 221 -45 220 -54 0 -3 -43 -43 -95 -88
l-95 -83 -304 0 -304 0 -103 82 c-57 44 -105 83 -107 85 -2 1 -2 5 1 8 10 10
224 55 308 64 112 13 361 5 479 -14z m607 -195 c108 -52 309 -182 384 -249
l45 -40 -226 -1 c-124 0 -300 3 -390 6 l-165 7 -28 41 c-15 23 -27 45 -27 49
0 4 58 62 128 127 110 103 132 119 153 114 14 -3 71 -27 126 -54z m-1492 -73
l145 -119 -27 -49 c-22 -40 -31 -48 -47 -44 -49 14 -236 17 -320 6 -159 -21
-318 -89 -415 -177 -21 -19 -41 -34 -45 -34 -4 0 -32 14 -62 31 l-55 32 74 74
c90 92 197 180 303 249 97 63 275 156 292 152 6 -2 77 -56 157 -121z m89 -427
c142 -36 261 -120 323 -229 28 -50 79 -189 72 -197 -6 -5 -312 -64 -336 -64
-8 0 -13 2 -10 5 11 12 -14 91 -39 124 -14 18 -51 45 -82 60 -49 23 -69 26
-156 26 -85 0 -107 -4 -147 -23 -72 -36 -93 -72 -93 -159 0 -65 3 -75 31 -110
45 -56 88 -76 299 -144 242 -77 336 -122 418 -199 101 -94 147 -202 147 -345
0 -142 -47 -254 -149 -356 -118 -118 -267 -171 -481 -172 -323 -1 -593 163
-654 398 -9 32 -16 74 -16 91 0 37 -13 32 180 64 69 12 133 23 143 26 13 4 17
-1 17 -24 0 -95 82 -204 181 -238 62 -22 189 -25 255 -6 50 15 100 48 128 85
31 42 34 141 7 195 -35 68 -100 103 -337 181 -245 80 -318 114 -389 182 -99
94 -140 209 -133 375 6 134 39 207 135 303 100 99 218 154 373 174 68 10 236
-3 313 -23z m948 -128 c1 -64 4 -224 8 -355 l6 -238 290 360 290 360 198 1
c121 0 197 -4 195 -9 -1 -6 -133 -163 -291 -351 l-289 -341 346 -519 c190
-286 346 -522 346 -525 0 -3 -93 -5 -208 -5 l-207 0 -215 312 c-118 172 -237
344 -263 382 -27 39 -50 71 -51 71 -2 0 -35 -38 -75 -85 l-71 -85 0 -297 0
-298 -185 0 -185 0 0 868 c0 478 2 871 4 873 2 2 83 3 180 1 l176 -3 1 -117z
m1256 -110 c95 -161 190 -387 218 -519 l7 -33 -195 0 -194 0 -117 152 c-102
133 -115 153 -104 169 7 10 76 97 153 193 l140 176 19 -23 c10 -12 43 -64 73
-115z m-3175 74 l47 -27 -16 -36 c-19 -46 -43 -173 -43 -227 0 -40 -7 -51
-126 -189 l-126 -147 -69 0 c-52 0 -69 3 -69 14 0 24 70 225 111 318 43 98 98
197 161 291 37 55 41 58 61 44 12 -7 43 -26 69 -41z m-1571 -671 c59 -31 86
-115 56 -175 -7 -13 -28 -35 -46 -47 -61 -41 -143 -23 -181 40 -67 110 56 241
171 182z m1353 -278 c32 -56 86 -143 118 -194 l60 -92 -128 -208 c-70 -114
-128 -209 -128 -209 -1 -1 -80 -4 -177 -8 l-177 -7 39 74 c79 152 134 368 159
625 5 59 10 110 10 115 0 4 37 7 83 7 l82 -1 59 -102z m3660 41 c3 -29 10
-107 16 -173 14 -149 43 -296 76 -383 l25 -67 -43 -38 c-70 -62 -81 -67 -164
-73 l-79 -5 -187 281 -188 280 66 115 67 115 203 0 203 0 5 -52z m-3122 -777
c144 -69 217 -86 363 -86 66 0 138 3 161 7 l41 8 47 -71 c27 -40 44 -75 39
-82 -33 -55 -388 -517 -397 -517 -17 0 -257 70 -277 81 -17 9 -142 181 -318
440 l-93 136 45 74 c24 41 63 106 85 145 l41 70 80 -78 c66 -63 99 -86 183
-127z m2557 12 c52 -6 54 -8 91 -65 l38 -58 -179 -265 c-203 -299 -168 -269
-349 -298 -52 -9 -105 -19 -117 -22 -19 -6 -43 22 -203 235 -100 133 -180 245
-178 249 2 4 37 55 78 114 l75 106 140 4 c303 6 553 7 604 0z m812 -175 c7
-13 37 -49 67 -81 30 -31 53 -59 51 -61 -6 -6 -235 -111 -385 -176 -75 -33
-172 -71 -215 -85 -78 -25 -270 -67 -276 -61 -2 2 38 63 88 137 50 74 114 168
142 210 l50 76 126 7 c171 10 266 23 299 40 36 20 39 20 53 -6z m-3969 -76
c14 -20 80 -111 147 -201 67 -89 120 -165 118 -167 -7 -8 -157 75 -227 124
-71 51 -215 185 -262 244 l-30 38 115 0 114 0 25 -38z m2078 -101 c0 -5 72
-103 159 -218 103 -134 155 -210 148 -214 -19 -11 -212 -48 -333 -65 -158 -22
-494 -29 -650 -15 -126 12 -294 38 -303 46 -2 3 76 110 174 240 l178 235 314
0 c183 0 313 -4 313 -9z"/>
</g>
</svg>
