<svg
  xmlns="http://www.w3.org/2000/svg"
  viewBox="0 0 24 24"
  fill="currentColor"
>
  <path d="M12 0C5.37 0 0 5.37 0 12c0 5.3 3.438 9.8 8.207 11.387.6.113.793-.262.793-.583 
  0-.288-.01-1.047-.016-2.056-3.338.724-4.042-1.61-4.042-1.61-.546-1.387-1.334-1.757-1.334-1.757
  -1.09-.745.083-.729.083-.729 1.205.085 1.84 1.237 1.84 1.237
  1.07 1.834 2.807 1.304 3.492.997
  .107-.775.418-1.304.76-1.604
  -2.665-.303-5.466-1.332-5.466-5.93
  0-1.31.469-2.381 1.236-3.221
  -.124-.303-.535-1.523.117-3.176
  0 0 1.008-.322 3.301 1.23
  .957-.266 1.983-.399 3.003-.404
  1.02.005 2.047.138 3.006.404
  2.291-1.552 3.297-1.23 3.297-1.23
  .653 1.653.242 2.873.118 3.176
  .77.84 1.234 1.911 1.234 3.221
  0 4.61-2.804 5.624-5.475 5.921
  .43.37.823 1.1.823 2.22
  0 1.604-.014 2.896-.014 3.286
  0 .324.192.7.801.58
  C20.565 21.796 24 17.298 24 12
  24 5.37 18.627 0 12 0z"/>
</svg>
